<?xml version="1.0" encoding="utf-8"?>
<!-- Generator: Adobe Illustrator 21.1.0, SVG Export Plug-In . SVG Version: 6.00 Build 0)  -->
<svg version="1.1" id="Layer_1" xmlns="http://www.w3.org/2000/svg" xmlns:xlink="http://www.w3.org/1999/xlink" x="0px" y="0px"
	 viewBox="0 0 858.6 150.2" style="enable-background:new 0 0 858.6 150.2;" xml:space="preserve">
<style type="text/css">
	.st0{fill:#007DC3;}
	.st1{fill:#CFCECE;}
	.st2{fill:#016C3D;}
</style>
<g>
	<g>
		<path class="st0" d="M38.9,34.7h14.8l23.5,73.4H60.5l-5-16.3H24.7l-8.4,16.3H0L38.9,34.7z M51.3,77.6L44.1,54L31.9,77.6H51.3z"/>
		<path class="st0" d="M78.1,78.3v-0.2C79.9,61,94.3,47,112.7,47c11.3,0,17.7,3.8,22.7,9.3L126,66c-4.2-4.2-8.6-6.8-14.7-6.8
			c-10.1,0-18.3,8.4-19.4,18.7v0.2C90.8,88.4,97,97,107.4,97c6.9,0,11.4-2.7,16.5-7l7.5,8.5c-6.9,6.6-14.2,10.7-25.8,10.7
			C88,109.2,76.3,95.5,78.1,78.3z"/>
		<path class="st0" d="M138,78.3v-0.2C139.8,61,154.2,47,172.6,47c11.3,0,17.7,3.8,22.7,9.3l-9.4,9.7c-4.2-4.2-8.7-6.8-14.7-6.8
			c-10.1,0-18.3,8.4-19.4,18.7v0.2c-1.1,10.3,5.1,18.9,15.5,18.9c6.9,0,11.4-2.7,16.5-7l7.5,8.5c-6.9,6.6-14.2,10.7-25.8,10.7
			C147.9,109.2,136.2,95.5,138,78.3z"/>
		<path class="st0" d="M204.7,48h45.4l-1.3,11.8h-32.2L215.3,72h28.4l-1.2,11.8h-28.4l-1.3,12.6h32.6l-1.2,11.8h-45.8L204.7,48z"/>
		<path class="st0" d="M251,99.4l8.8-9.4c4.9,4.5,10.3,7.3,17.2,7.3c5.4,0,8.9-2.2,9.3-5.7v-0.2c0.3-3.3-1.5-5.1-11.3-7.7
			c-11.8-3.1-19.3-6.4-18-18.4v-0.2c1.1-10.9,10.7-18.1,23-18.1c8.8,0,15.9,2.8,21.5,7.6l-7.9,10c-4.9-3.7-9.9-5.9-15-5.9
			s-8,2.3-8.3,5.2v0.2c-0.4,3.9,2,5.2,12.1,7.9c11.9,3.2,18.3,7.6,17.2,18v0.2c-1.2,11.9-11.1,18.6-24,18.6
			C266.4,109,257.5,105.8,251,99.4z"/>
		<path class="st0" d="M303.4,99.4l8.8-9.4c4.9,4.5,10.3,7.3,17.2,7.3c5.4,0,8.9-2.2,9.3-5.7v-0.2c0.4-3.3-1.5-5.1-11.3-7.7
			c-11.8-3.1-19.3-6.4-18-18.4v-0.2c1.1-10.9,10.7-18.1,23-18.1c8.8,0,16,2.8,21.5,7.6l-7.9,10c-4.9-3.7-9.9-5.9-15-5.9
			s-8,2.3-8.3,5.2v0.2c-0.4,3.9,2,5.2,12.1,7.9c11.9,3.2,18.3,7.6,17.2,18v0.2c-1.2,11.9-11.1,18.6-24,18.6
			C318.8,109,309.9,105.8,303.4,99.4z"/>
	</g>
	<polygon class="st0" points="378.6,62.8 378.6,107.8 416.8,85.7 	"/>
	<polygon class="st1" points="365.8,100.1 353.1,130.7 390.5,134.9 	"/>
	<polygon class="st1" points="345.5,119.7 331,136.6 355.7,150.2 	"/>
	<polygon class="st1" points="326.8,121.4 312.4,123.9 326.8,144.3 	"/>
	<polygon class="st1" points="318.3,29.7 308.1,36.5 314.9,43.3 	"/>
	<polygon class="st1" points="325.1,28 320.9,19.5 335.3,17 	"/>
	<polygon class="st1" points="348.9,3.4 342.1,16.1 358.2,9.3 	"/>
	<polygon class="st1" points="374.3,0 359.1,15.3 381.1,13.6 	"/>
	<polygon class="st1" points="374.3,22.9 395.5,33.1 400.6,12.7 	"/>
	<polygon class="st1" points="375.2,39.9 398.9,66.2 414.2,37.3 	"/>
	<polygon class="st1" points="299.3,112.2 302.7,133.4 309.5,115.6 	"/>
	<g>
		<path class="st2" d="M451.1,26.1h-23v80.3h5.9V69.6h17c6.1,0,11.4-2.2,15.6-6.4c4.4-4.4,6.6-9.6,6.6-15.5c0-6-2.3-11.3-6.6-15.3
			C462.4,28.2,457.2,26.1,451.1,26.1z M434,32h17c4.5,0,8.3,1.5,11.5,4.6c3.3,3.2,4.9,6.9,4.8,11c0,4.4-1.6,8.1-4.8,11.4
			c-3.2,3.2-6.9,4.7-11.5,4.7h-17V32z"/>
		<path class="st2" d="M520.4,53.6c-3.6-2.8-8.3-4.3-14.1-4.3c-7.3,0-13.9,2.9-18,7.6V20.2h-6v86.1h6v-38c0-3.3,2-6.3,6-9.2
			c3.7-2.6,7.9-4,12.1-4c9.1,0,14.2,4.4,14.2,12.1v39h6.1V67.5C526.6,61.6,524.5,56.9,520.4,53.6z"/>
		<path class="st2" d="M566.8,52.9c-3.8-2.4-8.2-3.7-13-3.7c-7.4,0-13.1,2.3-17.4,7l-1.2,1.3l4.4,4.2l1.2-1.3
			c3.1-3.4,7.3-5.1,12.9-5.1c3.7,0,7.1,0.9,9.9,2.7c3,1.9,4.5,4.2,4.5,7.1v8.2L550,78.8c-10.6,3.2-16,8.6-16,16.1
			c0,10.9,9.8,12.5,15.6,12.5c3.2,0,7.2-1,12.4-3c2.6-1.1,4.6-2.1,6.1-3.1v5h6.2V65.1C574.3,60,571.7,55.9,566.8,52.9z M568,93.2
			c0,0.3-0.3,2.2-6.9,5.2c-4.8,2.1-8.7,3.2-11.7,3.2c-8.6,0-9.7-3.6-9.7-6.7c0-4.6,3.8-8,11.8-10.3l16.4-5V93.2z"/>
		<path class="st2" d="M612.3,49.3c-7.3,0-13.9,2.9-18,7.6v-6.4h-6v55.9h6V68.5c0-3.3,2-6.3,6-9.2c3.7-2.6,7.9-4,12.1-4
			c0.5,0,1.2,0,2.1,0.1l1.3,0.1l2.4-5.8l-3.3-0.2C613.8,49.4,613,49.3,612.3,49.3z"/>
		<path class="st2" d="M681.3,49.3c-7.9,0-14,3.1-18.2,9.2c-2.5-5.6-8.9-9.2-17-9.2c-6.5,0-12.4,2.7-16.2,7.2v-6h-6v55.8h6v-38
			c0-3.3,1.7-6.2,5.4-9.1c3.5-2.7,7.2-4,10.9-4c8.4,0,13.1,4.5,13.1,12.4v38.8h6V68.5c0-3.6,1.6-6.6,5-9.2c3.6-2.7,7.2-4,11-4
			c8.8,0,12.8,3.8,12.8,12.4v38.8h5.9V67.7C700,56.4,692.9,49.3,681.3,49.3z"/>
		<path class="st2" d="M740.2,52.9c-4-2.5-8.2-3.7-13-3.7c-7.4,0-13.1,2.3-17.4,7l-1.2,1.3l4.4,4.2l1.2-1.3c3.2-3.5,7.4-5.1,13-5.1
			c3.6,0,7,0.9,9.9,2.7c3,1.9,4.5,4.2,4.5,7.1v8.2l-18.2,5.5c-10.6,3.2-16,8.6-16,16.1c0,10.9,9.8,12.5,15.6,12.5
			c3.2,0,7.2-1,12.4-3c2.6-1.1,4.7-2.1,6.2-3.2v5.1h6V65.1C747.6,60,745.1,55.9,740.2,52.9z M741.5,93.2c0,0.3-0.3,2.2-6.9,5.2
			c-4.8,2.1-8.7,3.2-11.7,3.2c-8.5,0-9.5-3.6-9.5-6.7c0-4.6,3.8-8,11.8-10.3l16.3-5V93.2z"/>
		<path class="st2" d="M796.6,97.4c-4.6,2.8-9.3,4.1-14.1,4.1c-5.8,0-10.6-2.3-14.5-7.1c-3.8-4.7-5.6-10-5.6-16.1
			c0-6.3,1.9-11.7,5.8-16.2c3.9-4.7,8.6-7,14.4-7c3.9,0,7.9,1,11.9,3l1.7,0.8l2.4-5.5l-1.5-0.7c-4.7-2.4-9.5-3.6-14.5-3.6
			c-7.5,0-14,3.1-19.2,9.2c-4.7,5.8-7.1,12.5-7.1,19.9c0,7.4,2.4,14.1,7.1,19.9c5.1,6.1,11.5,9.2,19.2,9.2c6.1,0,11.8-1.6,17.1-4.7
			l1.5-0.9l-3-5.4L796.6,97.4z"/>
		<path class="st2" d="M844.8,50.6l-15.4,37.8c-1.2,2.9-2.1,5.2-2.8,7.1c-1-2.9-1.9-5.2-2.8-7.1l-15.5-37.8h-6.6l19.9,48.4
			c0.5,1.2,1.2,3.1,2,4.4c-0.5,0.9-1.2,2.3-2,4.4l-11,27h6.5l34.3-84.2H844.8z"/>
		<path class="st2" d="M853.2,113.4L853.2,113.4c0-1.1-0.3-1.9-0.9-2.5c-0.8-0.8-1.9-1.2-3.4-1.2H844v11.1h2.4v-3.6h1.9h0.1l2.3,3.6
			h2.8l-2.7-4C852.2,116.3,853.2,115.2,853.2,113.4z M850.8,113.5c0,0.9-0.7,1.6-1.9,1.6V115h-2.4v-3.2h2.4
			C850.1,111.8,850.8,112.3,850.8,113.5L850.8,113.5z"/>
		<path class="st2" d="M848.3,105.2c-5.8,0-10.4,4.7-10.4,10.4c0,5.6,4.5,10.3,10.3,10.4c5.8,0,10.4-4.8,10.4-10.4v-0.1
			C858.6,109.9,854.1,105.2,848.3,105.2z M848.2,124.8c-5.2,0-9.1-4.1-9.1-9.2v-0.1c0-5,4-9.2,9.2-9.2c5.2,0,9.1,4.1,9.1,9.2
			C857.4,120.6,853.5,124.7,848.2,124.8z"/>
	</g>
</g>
</svg>
